<svg width="56" height="85" viewBox="0 0 56 85" fill="none" xmlns="http://www.w3.org/2000/svg">
<path d="M47.384 29.1445C47.0573 28.6128 46.5636 28.0772 45.8875 27.553L27.2035 13.0282C23.1735 9.89462 17.5634 10.81 14.7412 15.0641L1.6522 34.7812C1.17741 35.4953 0.881138 36.1562 0.7406 36.7678C0.429137 37.5654 0.315188 38.4504 0.463322 39.3582L7.21294 80.6384C7.65355 83.3352 10.1984 85.166 12.8952 84.7254L51.1329 78.4733C53.8298 78.0327 55.6605 75.4878 55.2199 72.791L48.4703 31.5109C48.3222 30.6069 47.9348 29.8016 47.384 29.1445ZM23.6901 30.6752C20.8033 31.1462 18.0799 29.1901 17.6089 26.3034C17.138 23.4166 19.0941 20.6933 21.9808 20.2223C24.8675 19.7513 27.5909 21.7074 28.0619 24.5941C28.5367 27.4809 26.5768 30.2043 23.6901 30.6752Z" fill="#99C905"/>
<mask id="mask0" mask-type="alpha" maskUnits="userSpaceOnUse" x="0" y="10" width="56" height="75">
<path d="M47.384 28.7647C47.0573 28.2329 46.5636 27.6974 45.8875 27.1732L27.2035 12.6484C23.1735 9.5148 17.5634 10.4302 14.7412 14.6843L1.6522 34.4014C1.17741 35.1155 0.881138 35.7764 0.7406 36.3879C0.429137 37.1856 0.315188 38.0706 0.463322 38.9784L7.21294 80.2585C7.65355 82.9553 10.1984 84.7861 12.8952 84.3455L51.1329 78.0935C53.8298 77.6529 55.6605 75.108 55.2199 72.4112L48.4703 31.131C48.3222 30.227 47.9348 29.4218 47.384 28.7647ZM23.6901 30.2954C20.8033 30.7664 18.0799 28.8103 17.6089 25.9235C17.138 23.0368 19.0941 20.3134 21.9808 19.8424C24.8675 19.3714 27.5909 21.3276 28.0619 24.2143C28.5367 27.101 26.5768 29.8244 23.6901 30.2954Z" fill="#99C905"/>
</mask>
<g mask="url(#mask0)">
<path d="M12.8686 61.8519C10.4719 64.8791 6.93564 71.1388 6.93564 71.1388C7.28129 68.7496 10.1794 64.1081 11.957 61.491C10.111 62.1633 8.22707 63.865 6.94704 66.2427C5.49608 68.9357 5.19222 71.7959 5.95188 73.7672C8.01817 73.319 10.2402 71.492 11.6949 68.799C13.0092 66.3605 13.3776 63.7814 12.8686 61.8519Z" fill="#73AD02"/>
<path d="M61.0959 66.6226C57.3317 65.7565 50.1605 65.2476 50.1605 65.2476C52.4661 64.5373 57.9015 65.1602 61.0275 65.6426C59.6259 64.2638 57.2824 63.2914 54.5818 63.1547C51.5241 62.999 48.8121 63.9523 47.3574 65.4869C48.6488 67.1619 51.2506 68.385 54.3083 68.5407C57.0849 68.685 59.5727 67.9102 61.0959 66.6226Z" fill="#73AD02"/>
<path d="M38.5605 77.877C35.8409 75.1346 30.056 70.8691 30.056 70.8691C32.3844 71.4996 36.6423 74.9333 39.0277 77.0148C38.5833 75.1004 37.1209 73.0265 34.9141 71.4654C32.4148 69.6992 29.6116 69.0535 27.5605 69.5701C27.7543 71.6743 29.3002 74.1015 31.7995 75.8677C34.0671 77.4744 36.5816 78.1505 38.5605 77.877Z" fill="#73AD02"/>
<path d="M21.7605 24.8676C24.4383 27.648 30.1624 31.9971 30.1624 31.9971C27.8416 31.3324 23.633 27.8379 21.2781 25.7222C21.6959 27.6404 23.1279 29.7371 25.3119 31.3286C27.7846 33.129 30.5802 33.8165 32.6351 33.3265C32.4717 31.2184 30.96 28.7723 28.4873 26.9681C26.2463 25.3348 23.7394 24.6207 21.7605 24.8676Z" fill="#73AD02"/>
<path d="M-10.9393 39.8254C-5.40512 41.7397 5.31754 43.6769 5.31754 43.6769C1.72433 44.372 -6.36609 42.5488 -11.0038 41.3105C-9.11608 43.6161 -5.73937 45.4621 -1.69416 46.1078C2.88662 46.8409 7.13314 45.8457 9.57546 43.7681C7.9042 41.0333 4.17805 38.7657 -0.406528 38.0326C-4.5543 37.3717 -8.43238 38.1313 -10.9393 39.8254Z" fill="#73AD02"/>
<path d="M46.875 41.2194C52.2572 43.5212 62.8203 46.2104 62.8203 46.2104C59.1891 46.651 51.2468 44.258 46.7078 42.6931C48.4285 45.1279 51.6646 47.2055 55.6529 48.1399C60.1691 49.1959 64.4764 48.5046 67.0592 46.6054C65.5855 43.7605 62.0303 41.2346 57.5102 40.1786C53.4157 39.2253 49.4958 39.7076 46.875 41.2194Z" fill="#73AD02"/>
<path d="M16.0478 88.7478C18.8548 85.7319 23.1545 79.3735 23.1545 79.3735C22.5809 81.8842 19.1055 86.5751 16.986 89.2074C19.0067 88.649 21.1566 87.0006 22.7253 84.5772C24.4991 81.8348 25.0688 78.819 24.4269 76.6539C22.1897 76.954 19.6676 78.705 17.8938 81.4474C16.2833 83.9391 15.668 86.6511 16.0478 88.7478Z" fill="#73AD02"/>
<path d="M-0.573658 17.3203C1.72433 22.7064 7.50157 31.9477 7.50157 31.9477C4.57307 29.7561 0.486074 22.5392 -1.71315 18.2737C-2.15376 21.2212 -1.24976 24.9626 0.991251 28.3925C3.52853 32.2781 7.11794 34.7547 10.2971 35.1687C11.1973 32.092 10.3731 27.8075 7.83583 23.9256C5.53404 20.397 2.37004 18.0344 -0.573658 17.3203Z" fill="#73AD02"/>
<path d="M53.7158 21.5745C49.1768 25.2702 41.8878 33.3759 41.8878 33.3759C43.1868 29.9536 48.9944 24.032 52.4851 20.7426C49.53 21.1339 46.1875 23.033 43.5059 26.1363C40.471 29.6459 39.0846 33.7823 39.567 36.9501C42.7728 36.9653 46.6623 34.9901 49.6933 31.4805C52.4471 28.2937 53.8411 24.5979 53.7158 21.5745Z" fill="#73AD02"/>
<path d="M46.8788 7.06108C42.3398 10.7568 35.0508 18.8625 35.0508 18.8625C36.3498 15.4402 42.1575 9.52239 45.6481 6.22925C42.693 6.62048 39.3505 8.51964 36.6689 11.6229C33.6379 15.1325 32.2477 19.2689 32.7301 22.4367C35.9358 22.4519 39.8253 20.4768 42.8564 16.9671C45.6063 13.7803 47.0003 10.0845 46.8788 7.06108Z" fill="#73AD02"/>
</g>
<path d="M24.2902 19.455C21.1794 18.6839 18.0305 20.5793 17.2595 23.6901C16.4884 26.801 18.3838 29.9498 21.4946 30.7208C24.6054 31.4919 27.7543 29.5965 28.5253 26.4857C29.2964 23.3749 27.401 20.2299 24.2902 19.455ZM22.1175 28.2177C20.3893 27.7885 19.3372 26.0413 19.7664 24.3169C20.1956 22.5886 21.9428 21.5365 23.6673 21.9657C25.3955 22.3949 26.4476 24.1421 26.0184 25.8666C25.5892 27.591 23.842 28.6431 22.1175 28.2177Z" fill="#56341B"/>
<path d="M40.9231 3.06905C38.7542 -1.14709 33.0453 -0.592536 30.0067 2.15365C27.2339 4.66054 25.9273 8.22717 24.1724 11.4633C24.6434 11.5925 25.1714 11.7824 25.7374 12.0749C26.9908 9.78068 28.0695 7.37255 29.5661 5.23029C30.7208 3.57802 32.2363 2.13466 34.2494 1.69405C36.6917 1.15849 39.5519 2.63224 39.7456 5.23409C39.9051 7.36495 38.7618 9.54898 37.6945 11.3114C36.1562 13.8525 33.8696 15.8466 31.4652 17.5407C29.3951 18.9992 25.2398 22.5506 22.6417 21.9049C22.8088 22.6532 24.9739 23.8763 25.5436 23.7129C29.6648 22.524 33.7176 18.2206 36.2739 15.7516C39.1302 12.9941 43.0463 7.19782 40.9231 3.06905Z" fill="#935022"/>
</svg>
