<svg width="24" height="24" viewBox="0 0 24 24" fill="none" xmlns="http://www.w3.org/2000/svg">
<path d="M9.92799 3.93188C7.36012 4.00543 4.92606 5.09367 3.15894 6.95826C1.39183 8.82284 0.435702 11.3118 0.499993 13.8799V15.1229C0.499795 16.1004 0.789495 17.056 1.33245 17.8689C1.87541 18.6818 2.64724 19.3153 3.55031 19.6895C4.45338 20.0637 5.44714 20.1616 6.40588 19.971C7.36463 19.7803 8.2453 19.3096 8.93651 18.6184C9.62773 17.9272 10.0984 17.0465 10.2891 16.0878C10.4797 15.129 10.3818 14.1353 10.0076 13.2322C9.63344 12.3291 8.99986 11.5573 8.187 11.0143C7.37414 10.4714 6.41851 10.1817 5.44099 10.1819C5.06501 10.1829 4.69056 10.2299 4.32599 10.3219C4.27832 10.3338 4.22818 10.3315 4.18184 10.3151C4.1355 10.2987 4.09503 10.269 4.06547 10.2297C4.03591 10.1905 4.01858 10.1434 4.01565 10.0943C4.01272 10.0452 4.02432 9.99639 4.04899 9.95389C4.63191 8.90106 5.48259 8.02088 6.51494 7.40242C7.54729 6.78395 8.72469 6.44915 9.92799 6.43189C10.2595 6.43189 10.5775 6.30019 10.8119 6.06577C11.0463 5.83135 11.178 5.51341 11.178 5.18189C11.178 4.85036 11.0463 4.53242 10.8119 4.298C10.5775 4.06358 10.2595 3.93188 9.92799 3.93188Z" fill="#38C860"/>
<path d="M22.25 6.43189C22.5815 6.43189 22.8995 6.30019 23.1339 6.06577C23.3683 5.83135 23.5 5.51341 23.5 5.18189C23.5 4.85036 23.3683 4.53242 23.1339 4.298C22.8995 4.06358 22.5815 3.93188 22.25 3.93188C19.6822 4.00569 17.2483 5.09402 15.4813 6.95854C13.7142 8.82306 12.758 11.3118 12.822 13.8799V15.1229C12.8218 16.1004 13.1115 17.0559 13.6544 17.8688C14.1973 18.6816 14.9691 19.3152 15.8721 19.6894C16.7751 20.0636 17.7688 20.1616 18.7275 19.971C19.6862 19.7805 20.5669 19.3099 21.2582 18.6188C21.9494 17.9276 22.4202 17.0471 22.611 16.0884C22.8017 15.1297 22.7039 14.136 22.3299 13.2329C21.9559 12.3298 21.3225 11.5579 20.5097 11.0148C19.697 10.4718 18.7415 10.1819 17.764 10.1819C17.3877 10.1828 17.0129 10.2299 16.648 10.3219C16.6004 10.3339 16.5504 10.3315 16.5041 10.3152C16.4578 10.2988 16.4175 10.2691 16.388 10.2299C16.3586 10.1905 16.3413 10.1435 16.3383 10.0944C16.3352 10.0454 16.3466 9.99654 16.371 9.95389C16.9539 8.90106 17.8046 8.02088 18.8369 7.40242C19.8693 6.78395 21.0467 6.44915 22.25 6.43189Z" fill="#38C860"/>
</svg>
